# xmcd
#
# Track frame offsets:
#	150
#	17442
#	36037
#	56990
#	75567
#	93985
#	109687
#	125085
#	141807
#	158825
#
# Disc length: 2353 seconds
#
# Revision: 1
# Processed by: cddbd v1.5.1PL0 Copyright (c) Steve Scherf et al.
# Submitted via: CDex 1.50Beta5
#
DISCID=7b092f0a
DTITLE=五輪真弓 - ノスタルジー
DYEAR=1988
DGENRE=Pop
TTITLE0=ノスタルジー
TTITLE1=心と心
TTITLE2=最後のロンリネス
TTITLE3=恋しても
TTITLE4=時に涙、時に微笑
TTITLE5=川は海へ
TTITLE6=銀杏物語
TTITLE7=愛を探して
TTITLE8=もっと忘れて
TTITLE9=ハロー、マイ・フレンド
EXTD=
EXTT0=
EXTT1=
EXTT2=
EXTT3=
EXTT4=
EXTT5=
EXTT6=
EXTT7=
EXTT8=
EXTT9=
PLAYORDER=
